<?xml version="1.0" encoding="utf-8" ?><svg xmlns="http://www.w3.org/2000/svg" xmlns:xlink="http://www.w3.org/1999/xlink" width="1448" height="1086" viewBox="0 0 1448 1086"><path d="M0 0L1448 0L1448 1086L0 1086L0 0Z"/><path fill="#FEFEFE" d="M316.798 329.06C350.281 325.021 396.577 336.168 425.869 352.503C478.921 382.089 508.54 421.503 525.608 478.726C495.895 481.06 455.73 478.364 424.513 479.211C411.242 457.947 394.738 442.385 371.255 432.811C344.14 421.829 313.764 422.125 286.869 433.634C260.252 444.76 239.176 466.047 228.315 492.773C217.613 518.596 217.696 547.63 228.546 573.391C240.021 600.162 261.727 621.231 288.828 631.905C315.603 642.509 349.484 642.299 375.805 630.688C405.629 617.532 421.036 596.664 432.601 567.754L328.287 567.505C327.832 545.409 327.897 523.306 328.483 501.213L380.264 501.046L530.18 501.208C532.068 536.045 531.654 568.03 531.616 602.872L531.402 731.517L438.905 731.505C438.967 720.497 438.87 709.489 438.613 698.484C409.939 716.522 383.657 727.58 349.563 730.868C293.863 736.24 242.663 720 199.668 684.613C159.078 650.695 133.584 602.074 128.769 549.399C123.907 495.968 140.634 442.814 175.217 401.796C211.204 358.241 260.96 334.29 316.798 329.06Z"/><path fill="#FEFEFE" d="M672.933 329.05C675.632 328.724 680.246 328.641 683.085 328.639C717.698 328.459 750.935 342.18 775.341 366.724C791.19 382.605 803.691 403.745 808.788 425.69C812.722 442.634 811.834 462.436 811.824 479.956L811.77 535.581L811.695 731.658L714.866 731.497L714.787 649.129L693.244 649.113L650.496 649.119L650.413 731.515L553.649 731.317L553.657 541.115L553.552 483.402C553.519 466.254 552.825 447.426 556.095 430.66C560.069 411.072 568.653 392.712 581.135 377.101C604.3 347.885 636.49 333.305 672.933 329.05Z"/><path d="M677.44 428.675C703.19 427.052 726.712 441.559 733.63 467.47C736.992 480.061 735.734 500.814 735.644 514.191L735.445 566.448L689.709 566.445L629.899 566.442L629.837 513.258C629.764 501.731 629.084 482.22 631.143 471.53C632.595 463.758 635.717 456.395 640.294 449.949C649.712 436.798 661.894 431.235 677.44 428.675Z"/><path fill="#FEFEFE" d="M676.347 464.152C696.413 460.589 715.557 474.002 719.06 494.079C722.562 514.156 709.092 533.259 689.004 536.702C669.003 540.129 649.998 526.728 646.51 506.737C643.022 486.745 656.366 467.7 676.347 464.152Z"/><path fill="#FEFEFE" d="M976.071 328.941C1012.15 328.137 1049.96 328.722 1086.17 328.832L1086.17 430.936L1086.2 557.779C1086.21 580.429 1087.85 624.587 1082.89 645.026C1078.23 663.868 1068.54 681.092 1054.86 694.861C992.276 757.824 861.25 739.81 836.467 646.194C831.695 628.168 832.886 604.932 832.913 586.264L832.929 530.677L833.004 328.938C869.101 328.307 906.402 328.774 942.594 328.83L942.619 517.669L942.597 574.088C942.544 585.076 942.144 596.045 942.573 607.027C942.98 617.431 945.019 628.641 957.816 629.58C962.601 629.95 967.32 628.28 970.808 624.984C978.075 618.16 976.004 593.994 976.032 583.622L976.092 523.795L976.071 328.941Z"/><path fill="#FEFEFE" d="M1109.44 328.953C1182.46 327.982 1256.76 328.731 1329.85 328.831C1330.02 395.484 1286.55 453.608 1218.55 463.054C1210.65 464.152 1203.52 464.361 1195.53 464.515L1195.33 488.522L1296.72 488.608C1296.62 523.477 1290.93 542.178 1270.73 570.581C1252.26 592.867 1232.57 604.788 1204.18 610.883L1204.1 731.528L1109.34 731.649L1109.44 328.953Z"/></svg>