<svg width="1202" height="404" viewBox="0 0 1202 404" fill="none" xmlns="http://www.w3.org/2000/svg">
<path d="M188.856 0.830894C222.339 -3.20811 268.635 7.93889 297.927 24.2739C350.979 53.8599 380.598 93.2739 397.666 150.497C367.953 152.831 327.788 150.135 296.571 150.982C283.3 129.718 266.796 114.156 243.313 104.582C216.198 93.5999 185.822 93.8959 158.927 105.405C132.31 116.531 111.234 137.818 100.373 164.544C89.6706 190.367 89.7536 219.401 100.604 245.162C112.079 271.933 133.785 293.002 160.886 303.676C187.661 314.28 221.542 314.07 247.863 302.459C277.687 289.303 293.094 268.435 304.659 239.525L200.345 239.276C199.89 217.18 199.955 195.077 200.541 172.984L252.322 172.817L402.238 172.979C404.126 207.816 403.712 239.801 403.674 274.643L403.46 403.288L310.963 403.276C311.025 392.268 310.928 381.26 310.671 370.255C281.997 388.293 255.715 399.351 221.621 402.639C165.921 408.011 114.721 391.771 71.7256 356.384C31.1356 322.466 5.64163 273.845 0.826628 221.17C-4.03537 167.739 12.6916 114.585 47.2746 73.5669C83.2616 30.0119 133.018 6.06089 188.856 0.830894Z" fill="black"/>
<path d="M555.143 0.409342C589.756 0.229346 622.993 13.9505 647.399 38.4943C663.248 54.3753 675.749 75.5161 680.846 97.4611C684.78 114.405 683.892 134.207 683.882 151.727L683.828 207.352L683.753 403.429L586.924 403.268L586.845 320.9L565.302 320.884L522.554 320.89L522.471 403.285L425.707 403.088L425.715 212.886L425.61 155.173C425.577 138.025 424.883 119.197 428.153 102.431C432.127 82.843 440.711 64.4832 453.193 48.8722C476.358 19.6563 508.548 5.07551 544.991 0.820474C547.69 0.494474 552.304 0.411342 555.143 0.409342ZM605.688 139.24C598.77 113.33 575.248 98.8227 549.499 100.445C533.953 103.005 521.77 108.569 512.352 121.72C507.775 128.166 504.653 135.529 503.201 143.301C501.142 153.991 501.822 173.502 501.895 185.028L501.958 238.213L561.767 238.216L607.503 238.219L607.702 185.962C607.792 172.585 609.05 151.831 605.688 139.24Z" fill="black"/>
<path d="M548.405 135.923C568.471 132.36 587.615 145.773 591.118 165.85C594.62 185.927 581.15 205.03 561.062 208.473C541.061 211.9 522.056 198.499 518.568 178.508C515.08 158.516 528.424 139.471 548.405 135.923Z" fill="black"/>
<path d="M848.128 0.711906C884.207 -0.0920945 922.017 0.492897 958.227 0.602897V102.707L958.257 229.55C958.267 252.2 959.907 296.358 954.947 316.797C950.287 335.639 940.597 352.863 926.917 366.632C864.333 429.595 733.307 411.581 708.524 317.965C703.752 299.939 704.943 276.703 704.97 258.035L704.986 202.448L705.061 0.708884C741.158 0.0778843 778.459 0.544883 814.651 0.600883L814.676 189.44L814.654 245.859C814.601 256.847 814.201 267.816 814.63 278.798C815.037 289.202 817.076 300.412 829.873 301.351C834.658 301.721 839.377 300.051 842.865 296.755C850.132 289.931 848.061 265.765 848.089 255.393L848.149 195.566L848.128 0.711906Z" fill="black"/>
<path d="M981.497 0.723918C1054.52 -0.247082 1128.82 0.501909 1201.91 0.601909C1202.08 67.2549 1158.61 125.379 1090.61 134.825C1082.71 135.923 1075.58 136.132 1067.59 136.286L1067.39 160.293L1168.78 160.379C1168.68 195.248 1162.99 213.949 1142.79 242.352C1124.32 264.638 1104.63 276.559 1076.24 282.654L1076.16 403.299L981.397 403.42L981.497 0.723918Z" fill="black"/>
</svg>
